# AST/ASF file generated using VICON BodyLanguage
# -----------------------------------------------
:version 1.10
:name VICON
:units
  mass 1.0
  length 0.45
  angle deg
:documentation
   .ast/.asf automatically generated from VICON data using
   VICON BodyBuilder and BodyLanguage model FoxedUp or BRILLIANT.MOD
:root
   order TX TY TZ RX RY RZ
   axis XYZ
   position 0 0 0  
   orientation 0 0 0 
:bonedata
  begin
     id 1 
     name lhipjoint
     direction 0.623415 -0.642378 0.445763 
     length 2.49859 
     axis 0 0 0  XYZ
  end
  begin
     id 2 
     name lfemur
     direction 0.34202 -0.939693 0  
     length 6.69689  
     axis 0 0 20  XYZ
    dof rx ry rz
    limits (-160.0 20.0)
           (-70.0 70.0)
           (-60.0 70.0)
  end
  begin
     id 3 
     name ltibia
     direction 0.34202 -0.939693 0   
     length 7.37574   
     axis 0 0 20   XYZ
    dof rx
    limits (-10.0 170.0)
  end
  begin
     id 4 
     name lfoot
     direction 0.084323 -0.231675 0.969132   
     length 2.09111   
     axis -90 7.62852e-016 20   XYZ
    dof rx rz
    limits (-45.0 90.0)
           (-70.0 20.0)
  end
  begin
     id 5 
     name ltoes
     direction 1.5357e-011 -4.21957e-011 1   
     length 1.04989   
     axis -90 7.62852e-016 20   XYZ
    dof rx
    limits (-90.0 20.0)
  end
  begin
     id 6 
     name rhipjoint
     direction -0.605402 -0.653903 0.45376   
     length 2.45455  
     axis 0 0 0  XYZ 
  end
  begin
     id 7 
     name rfemur
     direction -0.34202 -0.939693 0   
     length 6.64523   
     axis 0 0 -20   XYZ
    dof rx ry rz
    limits (-160.0 20.0)
           (-70.0 70.0)
           (-70.0 60.0)
  end
  begin
     id 8 
     name rtibia
     direction -0.34202 -0.939693 0   
     length 7.3339   
     axis 0 0 -20   XYZ
    dof rx
    limits (-10.0 170.0)
 end
 begin
     id 9 
     name rfoot
     direction -0.120854 -0.332043 0.93549   
     length 2.23135  
     axis -90 -7.62852e-016 -20   XYZ
    dof rx rz
    limits (-45.0 90.0)
           (-20.0 70.0)
  end
  begin
     id 10 
     name rtoes
     direction -1.53563e-011 -4.21914e-011 1   
     length 1.10614   
     axis -90 -7.62852e-016 -20   XYZ
    dof rx
    limits (-90.0 20.0)
  end
  begin
     id 11 
     name lowerback
     direction 0.0319682 0.998615 -0.0417941   
     length 2.02718   
     axis 0 0 0   XYZ
    dof rx ry rz
    limits (-20.0 45.0)
           (-30.0 30.0)
           (-30.0 30.0)
  end
  begin
     id 12 
     name upperback
     direction 7.63181e-005 0.995808 0.0914691   
     length 1.97539   
     axis 0 0 0   XYZ
    dof rx ry rz
    limits (-20.0 45.0)
           (-30.0 30.0)
           (-30.0 30.0)
  end
  begin
     id 13 
     name thorax
     direction -0.016423 0.993627 0.111514   
     length 2.00349   
     axis 0 0 0   XYZ
    dof rx ry rz
    limits (-20.0 45.0)
           (-30.0 30.0)
           (-30.0 30.0)
  end
  begin
     id 14 
     name lowerneck
     direction -0.174763 0.981668 -0.0760716   
     length 1.71436   
     axis 0 0 0   XYZ
    dof rx ry rz
    limits (-20.0 45.0)
           (-30.0 30.0)
           (-30.0 30.0)
  end
  begin
     id 15 
     name upperneck
     direction 0.345458 0.934587 -0.0848868   
     length 1.72805   
     axis 0 0 0   XYZ
    dof rx ry rz
    limits (-20.0 45.0)
           (-30.0 30.0)
           (-30.0 30.0)
  end
  begin
     id 16
     name head
     direction 0.13001 0.989848 -0.0574291  
     length 1.767  
     axis 0 0 0   XYZ
    dof rx ry rz
    limits (-20.0 45.0)
           (-30.0 30.0)
           (-30.0 30.0)
  end
  begin
     id 17 
     name lclavicle
     direction 0.952951 0.290122 0.0878234  
     length 3.54654  
     axis 0 0 0   XYZ
    dof ry rz
    limits (-20.0 10.0)
           (0.0 20.0)
  end
  begin
     id 18 
     name lhumerus
     direction 1 -4.48957e-011 -4.56525e-028   
     length 5.19807   
     axis 180 -30 -90   XYZ
    dof rx ry rz
    limits (-60.0 90.0)
           (-90.0 90.0)
           (-90.0 90.0)
  end
  begin
     id 19
     name lradius
     direction 1 -4.48979e-011 -2.0317e-027   
     length 3.0937   
     axis 180 -30 -90   XYZ
    dof rx
    limits (-10.0 170.0)
  end
  begin
     id 20
     name lwrist
     direction 1 -4.48953e-011 -3.05809e-027   
     length 1.54685   
     axis 8.48514e-016 90 90   XYZ
    dof ry
    limits (-180.0 0.0)
 end
  begin
     id 21 
     name lhand
     direction 1 -4.48952e-011 -6.11639e-027   
     length 0.672632   
     axis 3.9013e-015 90 90   XYZ
    dof rx rz
    limits (-90.0 90.0)
           (-45.0 45.0)
  end
  begin
     id 22 
     name lfingers
     direction 1 -4.48925e-011 -1.22426e-026   
     length 0.542293   
     axis 7.80276e-015 90 90   XYZ
    dof rx
    limits (0.0 90.0)
  end
  begin
     id 23
     name lthumb
     direction 0.707107 -6.3486e-011 0.707107   
     length 0.778628   
     axis -90 45 5.37419e-014   XYZ
    dof rx rz
    limits (-45.0 45.0)
           (-45.0 45.0)
  end
  begin
     id 24 
     name rclavicle
     direction -0.960732 0.273675 -0.0457849   
     length 3.52079  
     axis 0 0 0   XYZ 
    dof ry rz
    limits (-10.0 20.0)
           (-20.0 0.0)
  end
  begin
     id 25 
     name rhumerus
     direction -1 -4.48976e-011 -1.63613e-027  
     length 5.45222   
     axis 180 30 90   XYZ
    dof rx ry rz
    limits (-90.0 60.0)
           (-90.0 90.0)
           (-90.0 90.0)
  end
  begin
     id 26 
     name rradius
     direction -1 -4.48957e-011 -7.00033e-028   
     length 3.01284   
     axis 180 30 90   XYZ
    dof rx
    limits (-10.0 170.0)
  end
  begin
     id 27 
     name rwrist
     direction -1 -4.48983e-011 -3.05543e-027   
     length 1.50642   
     axis 8.48514e-016 -90 -90   XYZ
    dof ry
    limits (-180.0 0.0)
  end
  begin
     id 28
     name rhand
     direction -1 -4.48984e-011 -6.11072e-027   
     length 0.622296   
     axis 3.9013e-015 -90 -90   XYZ
    dof rx rz
    limits (-90.0 90.0)
           (-45.0 45.0)
  end
  begin
     id 29
     name rfingers
     direction -1 -4.48865e-011 -1.22637e-026   
     length 0.501711   
     axis 7.80276e-015 -90 -90   XYZ
    dof rx
    limits (0.0 90.0)
  end
  begin
     id 30
     name rthumb
     direction -0.707107 -6.34932e-011 0.707107   
     length 0.72036   
     axis -90 -45 -5.37419e-014   XYZ
    dof rx rz
    limits (-45.0 45.0)
           (-45.0 45.0)
  end
:hierarchy
  begin
    root lhipjoint rhipjoint lowerback
    lhipjoint lfemur
    lfemur ltibia
    ltibia lfoot
    lfoot ltoes
    rhipjoint rfemur
    rfemur rtibia
    rtibia rfoot
    rfoot rtoes
    lowerback upperback
    upperback thorax
    thorax lowerneck lclavicle rclavicle
    lowerneck upperneck
    upperneck head
    lclavicle lhumerus
    lhumerus lradius
    lradius lwrist
    lwrist lhand lthumb
    lhand lfingers
    rclavicle rhumerus
    rhumerus rradius
    rradius rwrist
    rwrist rhand rthumb
    rhand rfingers
  end

#!OML:ASF H:\Not Pregnant\Project 1\Capture day 1\Session 1\non-pregnant.ASF
:FULLY-SPECIFIED
:DEGREES
420
root 13.5117 15.023 34.0514 341.203 -99.3875 -326.81
lowerback 0.338236 5.05894 3.96463
upperback -5.08501 6.77636 -1.22903
thorax -4.85307 3.14621 -3.74763
lowerneck 23.0244 -7.20447 -33.5682
upperneck 6.21714 -20.8582 34.6588
head 5.74782 -12.9605 18.2296
rclavicle 5.34234e-014 -7.95139e-016
rhumerus -43.8287 -16.0443 -75.3183
rradius 27.1896
rwrist 13.9857
rhand -8.05325 -7.76685
rfingers 7.12502
rthumb 17.8576 -36.967
lclavicle 5.34234e-014 -7.95139e-016
lhumerus -60.2577 -0.0159505 72.3691
lradius 61.5026
lwrist 43.043
lhand -20.8711 -23.1818
lfingers 7.12502
lthumb 5.49883 6.72689
rfemur -14.252 -8.85326 22.2668
rtibia 53.3617
rfoot -14.0197 -2.7966
rtoes -31.8403
lfemur -41.685 -4.76362 -15.3253
ltibia 51.4146
lfoot -25.2662 -0.242167
ltoes -7.10549
421
root 13.6246 15.0073 34.0393 342.206 -100.022 -327.517
lowerback 0.0343892 5.28976 4.20606
upperback -5.28988 7.07385 -1.25259
thorax -4.84015 3.27757 -3.89086
lowerneck 23.085 -7.23182 -33.5234
upperneck 5.77335 -20.8488 34.9659
head 5.64133 -12.9716 18.3742
rclavicle -2.59414e-014 -7.95139e-016
rhumerus -42.8373 -14.982 -76.4858
rradius 27.2418
rwrist 14.7247
rhand -8.18676 -7.14197
rfingers 7.12502
rthumb 17.7291 -36.3537
lclavicle -2.59414e-014 -7.95139e-016
lhumerus -60.6198 0.0364091 72.1437
lradius 60.9558
lwrist 42.9289
lhand -20.9189 -23.0938
lfingers 7.12502
lthumb 5.45265 6.81602
rfemur -13.3442 -9.10368 22.6582
rtibia 51.4357
rfoot -15.2397 -3.71201
rtoes -33.3041
lfemur -42.6465 -4.01776 -15.0101
ltibia 51.8804
lfoot -24.9749 -0.278398
ltoes -7.4635
422
root 13.7386 14.9899 34.0264 342.853 -100.703 -327.834
lowerback -0.254911 5.52345 4.52279
upperback -5.50118 7.37657 -1.26685
thorax -4.83217 3.40756 -4.06475
lowerneck 23.1163 -7.25728 -33.4792
upperneck 5.32113 -20.8238 35.2797
head 5.53293 -12.9735 18.5235
rclavicle -3.66012e-014 -1.78906e-014
rhumerus -41.8177 -13.8058 -77.7016
rradius 27.31
rwrist 15.3926
rhand -8.31353 -6.53904
rfingers 7.12502
rthumb 17.6071 -35.7618
lclavicle -3.66012e-014 -1.78906e-014
lhumerus -60.9601 0.121285 71.8975
lradius 60.4668
lwrist 42.8817
lhand -20.9806 -23.0118
lfingers 7.12502
lthumb 5.39308 6.89953
rfemur -12.5928 -9.34265 23.1558
rtibia 49.5156
rfoot -16.7201 -4.67664
rtoes -34.4475
lfemur -43.6675 -3.22292 -14.622
ltibia 52.3949
lfoot -24.6881 -0.348
ltoes -7.81728
423
root 13.8539 14.9714 34.0129 343.249 -101.425 -327.872
lowerback -0.511472 5.76022 4.90256
upperback -5.72009 7.68511 -1.27651
thorax -4.84067 3.53625 -4.26949
lowerneck 23.1194 -7.28544 -33.4211
upperneck 4.86369 -20.7864 35.5934
head 5.42168 -12.9669 18.6705
rclavicle -2.7159e-014 -2.10712e-014
rhumerus -40.7811 -12.6374 -78.8791
rradius 27.3598
rwrist 16.1528
rhand -8.40829 -5.89847
rfingers 7.12502
rthumb 17.5159 -35.1294
lclavicle -2.7159e-014 -2.10712e-014
lhumerus -61.2791 0.232722 71.6315
lradius 60.0374
lwrist 42.9115
lhand -21.0575 -22.9289
lfingers 7.12502
lthumb 5.31878 6.98437
rfemur -12.0036 -9.57405 23.7526
rtibia 47.621
rfoot -18.2933 -5.69881
rtoes -35.1964
lfemur -44.729 -2.39763 -14.1696
ltibia 52.9391
lfoot -24.4037 -0.423557
ltoes -8.26777
424
root 13.97 14.9529 33.9975 343.458 -102.161 -327.716
lowerback -0.713513 5.99551 5.31886
upperback -5.94412 7.99416 -1.28939
thorax -4.87742 3.66142 -4.50131
lowerneck 23.0935 -7.32246 -33.3381
upperneck 4.41127 -20.7457 35.9049
head 5.3129 -12.9566 18.8106
rclavicle -2.21645e-014 -1.94809e-014
rhumerus -39.7362 -11.491 -80.0271
rradius 27.3973
rwrist 16.9504
rhand -8.45723 -5.23102
rfingers 7.12502
rthumb 17.4688 -34.4661
lclavicle -2.21645e-014 -1.94809e-014
lhumerus -61.5702 0.347658 71.3469
lradius 59.6603
lwrist 43.0122
lhand -21.1636 -22.8363
lfingers 7.12502
lthumb 5.21637 7.07946
rfemur -11.5476 -9.79838 24.4361
rtibia 45.7772
rfoot -19.8132 -6.76856
rtoes -35.6353
lfemur -45.793 -1.56055 -13.6652
ltibia 53.4922
lfoot -24.1222 -0.582193
ltoes -8.44159
425
root 14.0876 14.9345 33.9809 343.611 -102.902 -327.508
lowerback -0.848008 6.21755 5.74749
upperback -6.16998 8.28931 -1.30043
thorax -4.9514 3.77656 -4.74392
lowerneck 23.0327 -7.3547 -33.2571
upperneck 3.97606 -20.6891 36.2073
head 5.20826 -12.936 18.9477
rclavicle 1.10251e-013 1.78906e-014
rhumerus -38.672 -10.3502 -81.1377
rradius 27.4124
rwrist 17.7643
rhand -8.52321 -4.56009
rfingers 7.12502
rthumb 17.4054 -33.8008
lclavicle 1.10251e-013 1.78906e-014
lhumerus -61.8444 0.505174 71.0403
lradius 59.3313
lwrist 43.2088
lhand -21.2656 -22.7193
lfingers 7.12502
lthumb 5.11792 7.19886
rfemur -11.2234 -10.0113 25.1693
rtibia 44.0323
rfoot -21.175 -7.82801
rtoes -35.81
lfemur -46.8398 -0.72421 -13.1424
ltibia 54.033
lfoot -23.8304 -0.764722
ltoes -8.52823
426
root 14.2073 14.9163 33.9643 343.716 -103.644 -327.26
lowerback -0.907536 6.43091 6.20804
upperback -6.39445 8.57864 -1.31985
thorax -5.05854 3.88455 -5.01994
lowerneck 22.945 -7.38887 -33.1622
upperneck 3.55233 -20.6233 36.5011
head 5.10543 -12.9086 19.0779
rclavicle -1.16836e-013 -2.14687e-014
rhumerus -37.5893 -9.23629 -82.2154
rradius 27.4161
rwrist 18.5499
rhand -8.61831 -3.9208
rfingers 7.12502
rthumb 17.3138 -33.1696
lclavicle -1.16836e-013 -2.14687e-014
lhumerus -62.0807 0.690107 70.7182
lradius 59.0351
lwrist 43.49
lhand -21.3739 -22.581
lfingers 7.12502
lthumb 5.0133 7.33973
rfemur -11.0343 -10.1754 25.942
rtibia 42.4332
rfoot -22.342 -8.85468
rtoes -35.8175
lfemur -47.8632 0.0810393 -12.5995
ltibia 54.5469
lfoot -23.5111 -0.955405
ltoes -8.50569
427
root 14.3293 14.8989 33.9491 343.957 -104.367 -327.159
lowerback -0.901647 6.63488 6.66391
upperback -6.61102 8.86063 -1.35476
thorax -5.19027 3.98663 -5.31617
lowerneck 22.8345 -7.42311 -33.0691
upperneck 3.13758 -20.55 36.7855
head 5.00565 -12.8755 19.2035
rclavicle -3.83157e-014 -2.78299e-015
rhumerus -36.481 -8.09899 -83.2662
rradius 27.4223
rwrist 19.2228
rhand -8.71727 -3.33388
rfingers 7.12502
rthumb 17.2186 -32.591
lclavicle -3.83157e-014 -2.78299e-015
lhumerus -62.2695 0.910434 70.4002
lradius 58.7586
lwrist 43.8658
lhand -21.4943 -22.4217
lfingers 7.12502
lthumb 4.89703 7.5017
rfemur -10.9855 -10.2629 26.684
rtibia 41.0241
rfoot -23.3497 -9.81077
rtoes -35.782
lfemur -48.8567 0.825201 -12.0903
ltibia 55.0175
lfoot -23.1539 -1.10504
ltoes -8.47475
428
root 14.454 14.8818 33.936 344.298 -105.09 -327.166
lowerback -0.828401 6.83006 7.1203
upperback -6.8203 9.13795 -1.39167
thorax -5.3495 4.08377 -5.62264
lowerneck 22.7044 -7.45025 -32.997
upperneck 2.73316 -20.4648 37.0577
head 4.90889 -12.8348 19.3283
rclavicle -6.03063e-014 -4.6118e-014
rhumerus -35.3584 -6.87126 -84.3007
rradius 27.4572
rwrist 19.7168
rhand -8.85264 -2.86794
rfingers 7.12502
rthumb 17.0883 -32.1364
lclavicle -6.03063e-014 -4.6118e-014
lhumerus -62.4155 1.19404 70.0909
lradius 58.4851
lwrist 44.3158
lhand -21.6136 -22.2377
lfingers 7.12502
lthumb 4.78184 7.68837
rfemur -11.0838 -10.2632 27.3906
rtibia 39.8336
rfoot -24.2392 -10.6439
rtoes -35.5852
lfemur -49.8215 1.50006 -11.5906
ltibia 55.4412
lfoot -22.7506 -1.19107
ltoes -8.49544
429
root 14.5813 14.866 33.9211 344.858 -105.873 -327.413
lowerback -0.693663 7.03598 7.49709
upperback -7.01612 9.43547 -1.4214
thorax -5.53558 4.19302 -5.88636
lowerneck 22.5512 -7.47331 -32.943
upperneck 2.3397 -20.3706 37.3187
head 4.81695 -12.7874 19.4512
rclavicle 1.08089e-014 -5.04913e-014
rhumerus -34.2277 -5.44218 -85.3579
rradius 27.5522
rwrist 19.9115
rhand -9.02999 -2.57416
rfingers 7.12502
rthumb 16.9176 -31.8573
lclavicle 1.08089e-014 -5.04913e-014
lhumerus -62.5078 1.53975 69.7927
lradius 58.1978
lwrist 44.8286
lhand -21.728 -22.0298
lfingers 7.12502
lthumb 4.67146 7.89868
rfemur -11.3066 -10.0272 28.0504
rtibia 38.8695
rfoot -25.0453 -11.3906
rtoes -35.2637
lfemur -50.7166 2.19056 -11.1107
ltibia 55.8091
lfoot -22.325 -1.18728
ltoes -8.76568
430
root 14.7113 14.8502 33.9098 345.587 -106.629 -327.837
lowerback -0.49532 7.23543 7.864
upperback -7.20303 9.73154 -1.48128
thorax -5.742 4.29937 -6.18489
lowerneck 22.3823 -7.50348 -32.8892
upperneck 1.94897 -20.281 37.5758
head 4.73081 -12.7412 19.57
rclavicle 5.55603e-014 -9.54166e-015
rhumerus -33.109 -3.8831 -86.4103
rradius 27.7277
rwrist 19.8531
rhand -9.25325 -2.4821
rfingers 7.12502
rthumb 16.7026 -31.7835
lclavicle 5.55603e-014 -9.54166e-015
lhumerus -62.5276 1.91164 69.5072
lradius 57.8776
lwrist 45.3853
lhand -21.833 -21.8064
lfingers 7.12502
lthumb 4.57003 8.12434
rfemur -11.6642 -9.68105 28.6055
rtibia 38.121
rfoot -25.8095 -12.0032
rtoes -34.9847
lfemur -51.5856 2.75868 -10.6673
ltibia 56.1217
lfoot -21.8491 -1.11577
ltoes -8.9489
431
root 14.8432 14.8345 33.9007 346.504 -107.363 -328.473
lowerback -0.229666 7.42687 8.18468
upperback -7.37595 10.024 -1.56769
thorax -5.97155 4.4039 -6.49638
lowerneck 22.1903 -7.54588 -32.8288
upperneck 1.56433 -20.1989 37.8199
head 4.65157 -12.6957 19.6763
rclavicle -6.49777e-014 6.75868e-015
rhumerus -32.0054 -2.26524 -87.4093
rradius 27.9737
rwrist 19.664
rhand -9.42061 -2.4848
rfingers 7.12502
rthumb 16.5415 -31.7997
lclavicle -6.49777e-014 6.75868e-015
lhumerus -62.4757 2.31131 69.2396
lradius 57.5109
lwrist 45.9708
lhand -21.9419 -21.5775
lfingers 7.12502
lthumb 4.46487 8.35548
rfemur -12.1186 -9.23869 29.0265
rtibia 37.5601
rfoot -26.5721 -12.4312
rtoes -34.6438
lfemur -52.4013 3.23232 -10.2847
ltibia 56.3756
lfoot -21.34 -0.935727
ltoes -9.3047
432
root 14.9753 14.819 33.8935 347.47 -108.032 -329.211
lowerback 0.108681 7.59022 8.47869
upperback -7.52727 10.2875 -1.679
thorax -6.22096 4.49343 -6.83106
lowerneck 21.9745 -7.59947 -32.7549
upperneck 1.19157 -20.1236 38.0533
head 4.58024 -12.6513 19.7704
rclavicle -6.88292e-015 3.29983e-014
rhumerus -30.9153 -0.757347 -88.3034
rradius 28.2621
rwrist 19.5325
rhand -9.48251 -2.47981
rfingers 7.12502
rthumb 16.4819 -31.7997
lclavicle -6.88292e-015 3.29983e-014
lhumerus -62.3555 2.72653 68.9837
lradius 57.0842
lwrist 46.5578
lhand -22.0698 -21.3601
lfingers 7.12502
lthumb 4.3414 8.5754
rfemur -12.6043 -8.74669 29.3243
rtibia 37.1479
rfoot -27.3539 -12.7024
rtoes -34.2725
lfemur -53.1392 3.58265 -9.95464
ltibia 56.5732
lfoot -20.8082 -0.682329
ltoes -9.74203
433
root 15.1065 14.8035 33.8895 348.42 -108.616 -329.989
lowerback 0.512259 7.71658 8.77787
upperback -7.65365 10.5107 -1.81158
thorax -6.48061 4.56124 -7.20151
lowerneck 21.7382 -7.66229 -32.6679
upperneck 0.827076 -20.052 38.274
head 4.51356 -12.6063 19.8518
rclavicle -3.52097e-014 8.34896e-015
rhumerus -29.8419 0.641679 -89.1035
rradius 28.603
rwrist 19.4197
rhand -9.45195 -2.475
rfingers 7.12502
rthumb 16.5113 -31.7925
lclavicle -3.52097e-014 8.34896e-015
lhumerus -62.1713 3.16056 68.7457
lradius 56.5886
lwrist 47.1365
lhand -22.2089 -21.1602
lfingers 7.12502
lthumb 4.20706 8.77801
rfemur -13.0933 -8.29855 29.501
rtibia 36.8391
rfoot -28.1675 -12.7788
rtoes -33.8995
lfemur -53.803 3.80014 -9.6766
ltibia 56.7189
lfoot -20.2594 -0.388037
ltoes -10.1138
